<?xml version="1.0"?><svg version="1.2" baseProfile="tiny-ps" viewBox="0 0 300 300" xmlns="http://www.w3.org/2000/svg" xmlns:xlink="http://www.w3.org/1999/xlink"><title>Vocabber</title><g><g fill="#ebebeb" transform="matrix(.1 0 0 -.1 0 300)"><path d="M204 2529c-16-13-31-24-33-26-2-1 2-9 9-18l12-15h137l136-1 38-13c76-28 104-69 186-273 105-261 305-800 416-1118 98-279 217-597 252-673l35-74 41-19 42-19h102l15 18c28 31 45 74 126 313 44 128 125 356 180 504 54 149 151 414 215 590 142 393 181 494 217 565l28 55 39 36c21 21 61 49 89 63l52 27 106 6 107 6 5 8c9 14-20 48-51 61l-30 12-365 4c-201 2-398 1-437-3l-73-7-21-17-21-17 17-17 16-17h220l34-14 35-15 20-33 20-33v-82l-106-294c-304-845-459-1258-482-1281l-10-10-28 48c-39 66-382 955-455 1177-70 215-79 269-58 354l12 45 46 44c25 25 66 54 90 66l45 22 78 1c43 1 81 5 85 8 10 11-5 35-34 54l-27 18-521 3-521 3-30-22z"/></g><g fill="#cbcbcb" transform="matrix(.1 0 0 -.1 0 300)"><path d="M204 2528c-16-12-31-23-33-25-2-1 2-9 9-18l12-15h137l136-1 38-13c76-28 104-69 187-274 68-171 227-592 325-862 57-159 318-853 362-963l15-38 22 7c11 3 24 9 28 13 10 9 12 69 3 116l-7 39-19 24c-10 14-19 30-19 37s-7 26-15 41c-8 16-15 39-15 51s-4 25-10 28c-10 6-22 32-60 125-12 30-28 69-35 85-36 80-115 282-290 740-153 401-262 674-291 722-26 45-78 90-110 96-10 2-34 12-52 24l-33 20 38 7c21 3 130 6 243 6h205l-34-27-33-26-14-33c-8-19-14-45-14-59v-26l77-204c42-113 78-203 81-201 2 3-5 33-17 68-52 157-60 214-40 295l12 45 46 44c25 25 66 54 90 66l45 22 78 1c43 1 82 5 85 9l7 7-10 16c-6 9-18 21-28 27l-19 11-4-12-5-13h-40l11 14 11 14-22 6c-13 3-244 6-514 6H233l-29-22zm1634 15-38-4v-10c0-5-10-13-21-17l-21-8 17-17 16-17h220l34-14 35-15 20-33 20-33v-82l-106-294c-291-811-431-1184-471-1263l-15-28-8 8c-5 5-23 34-40 64-34 59-34 56 11-63 16-43 29-87 29-97v-18l15-6 15-5 9 18c6 10 52 136 104 282 252 702 303 843 397 1099l101 275 6 60 5 60-31 34c-17 18-31 39-31 47v14h79c43 0 100 3 127 6l49 6-47-30-46-30-26-44c-14-24-62-145-107-269-134-371-202-561-297-824-225-626-256-711-305-842l-52-138-35-5-35-5 34-13c19-6 55-12 81-12h47l15 18c28 31 45 74 126 313 44 128 125 356 180 504 54 149 151 414 215 590 142 393 181 494 217 565l28 55 39 36c21 21 61 49 89 63l51 26 108 8 108 7 4 10c2 6-6 21-18 34l-21 23-11-11c-6-6-20-11-30-11h-19l11 14 11 13-37 7c-40 6-742 5-805-1zm-788-668c0-5 5-17 10-25l10-15v10c0 6-5 17-10 25l-10 15v-10z"/></g><g fill="#a1a1a1" transform="matrix(.1 0 0 -.1 0 300)"><path d="m215 2537-18-14 7-11 7-12h-43l11-14 12-14 152-4 152-3 33-18c48-26 39-12-12 18-24 14-64 30-87 34l-44 9h640l-27-8c-15-4-40-17-56-29l-30-21-16-40c-9-22-16-48-16-58 1-20 159-443 159-426 1 6-6 31-15 55-28 79-54 188-54 224 0 20 5 57 11 82l12 45 46 44c25 25 66 54 91 66l44 22 76 2c41 1 78 3 83 3 14 2 7 28-13 46l-20 19-12-12-12-12h-31l-30 1 19 10 18 11-13 9-14 9H234l-19-13zm1628 6-33-4v-29h-14c-8 0-18-5-22-11l-7-11 14-9 14-9h214l26-10 26-10-7 11c-3 6-20 17-38 25l-31 13 191 1c105 0 207 2 225 5l34 5-43-14c-58-19-102-51-135-97l-28-38-78-218c-377-1046-532-1476-593-1640l-72-192-30-3-31-4 28-12 28-12h96l15 18c28 31 45 74 126 313 44 128 125 356 180 504 54 149 151 414 215 590 142 393 181 494 217 565l28 55 39 36c21 21 61 49 89 63l51 26 108 8 108 7 4 10c2 6-6 21-18 34l-21 23-11-11c-6-6-22-11-37-11h-25l15 10 14 9-8 8-8 8-391 1c-216 1-407-1-424-3zm130-40c-7-2-21-2-30 0l-18 5h60l-12-5zm132-83c4-14 9-47 12-75l5-50-107-295c-319-883-461-1260-483-1282l-10-10-26 44c-14 23-26 40-26 36 0-12 42-122 52-134l8-11-5-15-6-15 15-6 15-6 6 9c3 4 34 88 69 187 73 204 153 427 377 1047l159 438v94l-31 34-30 35 6-25zm-1525 3c0-4 12-28 26-53 41-72 167-391 373-950 49-135 162-434 249-665l160-420 21-3 21-3v18c0 30-46 157-213 593-85 223-205 538-267 700-253 665-290 748-350 780l-20 11v-8z"/></g><g fill="#767676" transform="matrix(.1 0 0 -.1 0 300)"><path d="m214 2535-19-14 10-1c47-4 1019 1 1026 6l9 5-5 10-6 9H234l-20-15zm1631 6-30-6 3-10 2-10h805l20 9 20 8-20 8-20 9-375-1c-206 0-388-3-405-7zm-565-26-12-15H999l-28-15c-16-8-40-28-55-45l-26-32v-93l67-177c37-98 68-176 70-174s-1 16-7 31c-22 58-50 176-50 210 0 20 5 57 11 82l12 45 46 44c25 25 66 54 91 66l44 22 76 2c96 3 90 2 90 17 0 13-30 47-42 47-3 0-11-7-18-15zm1422-1-13-14h-284l-45-21c-55-25-96-62-120-109-9-19-59-150-110-290-157-434-212-589-398-1105-100-275-195-537-212-582l-32-83h-18c-10 0-21-4-24-9l-6-9 23-6c12-3 43-6 68-6h46l15 18c28 31 45 74 126 313 44 128 125 356 180 504 54 149 151 414 215 590 142 393 181 494 217 565l28 55 39 36c21 21 61 49 89 63l52 27 106 6 107 6 5 8c6 10-16 47-31 53-5 2-16-3-23-10zm-2520-26 5-13 154-5 154-5 15-8 15-8-20 15c-10 9-35 21-55 26l-35 10H178l4-12zm1604-3 6-15h108c60 0 117-2 127-5s0 4-22 15l-40 19-92 1h-92l5-15zm332-126 4-60-97-272c-54-150-161-443-238-652-76-209-161-441-187-515-27-74-49-131-49-126-1 6-7 2-14-8l-14-18-22 33-22 34 7-25c3-14 15-43 25-64 11-22 19-48 19-59v-19l12 4 11 4 77 215c223 618 407 1130 455 1259 29 80 58 165 64 188l12 42-11 39c-5 21-16 44-23 49l-13 11 4-60zm-1508 11c31-61 147-355 269-685 62-165 145-385 185-490 40-104 131-342 201-528l128-337h9c5 0 11 6 14 14l5 14-34 99c-20 54-110 294-202 533-91 239-206 541-255 670-48 130-125 328-169 441l-81 206-30 45c-17 26-37 49-45 52l-15 5 20-39z"/></g><g fill="#585858" transform="matrix(.1 0 0 -.1 0 300)"><path d="m216 2532-5-9 472 4c260 2 479 6 487 7 8 2-202 4-467 5l-482 1-5-8zm1599-2-6-10 393 1h393l20 9 20 9h-407l-407 1-6-10zm-529-15-5-15h-276l-35-18-35-17-22-34-23-34v-76l61-163c33-90 63-165 66-168 4-3 3 4-1 15-20 55-46 169-46 200 0 20 5 57 11 82l12 45 46 44c25 25 66 54 91 66l44 22 76 2c96 3 90 2 90 17 0 13-31 47-42 47-3 0-8-7-12-15zm1419-5-6-10h-275l-49-17-49-16-41-42-42-41-26-70c-14-38-105-287-201-554-360-1000-449-1248-488-1347l-39-103-27-7-26-6 19-8c11-4 43-8 71-8l51-1 15 18c28 31 45 74 126 313 44 128 125 356 180 504 54 149 151 414 215 590 142 393 181 494 217 565l28 55 39 36c21 21 61 49 89 63l52 27 106 6 107 6 5 8c7 11-18 49-33 49-6 0-15-4-18-10zm-2427-37c28-2 76-2 105 0l52 3H225l53-3zm1844-124-1-56-70-194c-168-470-342-951-371-1029-59-156-137-385-143-417l-6-33h8c5 0 23 42 41 93 18 50 48 133 66 182 30 84 95 263 209 580 93 258 178 493 236 652l59 163v27c-1 16-7 41-14 58l-12 30-2-56zm-1510 25c11-17 139-347 278-714 285-753 500-1313 505-1318 3-3 8-3 11 1 10 10-14 75-316 867-37 96-119 312-182 480-204 536-259 667-290 686l-11 7 5-9zm878-1626c0-4 8-26 17-50l17-41 7 19c11 27 11 44 0 42-5-2-17 6-25 17s-16 17-16 13z"/></g><g fill="#10100f" transform="matrix(.1 0 0 -.1 0 300)"><path d="m1277 2505-27-24H978l-25-16c-13-9-33-30-43-48l-20-32v-55l47-127 47-126 4 12c2 6-1 26-7 43-14 40-14 97 0 155l12 45 46 44c25 25 66 54 91 66l44 22 76 2c41 1 78 3 83 3 13 2 7 28-10 44l-18 15-28-23zm1410-6-28-21-87 7c-48 4-107 7-131 6l-44-1-41-19c-46-20-91-62-113-104-13-26-164-440-508-1397-161-448-234-642-247-657-6-7-20-13-32-14h-21l20-9c11-5 43-9 71-9l51-1 15 18c28 31 45 74 126 313 44 128 125 356 180 504 54 149 151 414 215 590 142 393 181 494 217 565l28 55 39 36c21 21 61 49 89 63l52 27 106 6 107 6 5 8c6 11-18 49-31 49-5 0-23-10-38-21z"/></g></g></svg>